# AST/ASF file generated using VICON BodyLanguage
# -----------------------------------------------
:version 1.10
:name VICON
:units
  mass 1.0
  length 0.45
  angle deg
:documentation
   .ast/.asf automatically generated from VICON data using
   VICON BodyBuilder and BodyLanguage model FoxedUp or BRILLIANT.MOD
:root
   order TX TY TZ RX RY RZ
   axis XYZ
   position 0 0 0  
   orientation 0 0 0 
:bonedata
  begin
     id 1 
     name lhipjoint
     direction 0.547975 -0.797114 0.253638 
     length 2.36201 
     axis 0 0 0  XYZ
  end
  begin
     id 2 
     name lfemur
     direction 0.34202 -0.939693 0  
     length 7.69075  
     axis 0 0 20  XYZ
    dof rx ry rz
    limits (-160.0 20.0)
           (-70.0 70.0)
           (-60.0 70.0)
  end
  begin
     id 3 
     name ltibia
     direction 0.34202 -0.939693 0   
     length 7.91399   
     axis 0 0 20   XYZ
    dof rx
    limits (-10.0 170.0)
  end
  begin
     id 4 
     name lfoot
     direction 0.0705293 -0.193778 0.978507   
     length 2.13618   
     axis -90 7.62852e-016 20   XYZ
    dof rx rz
    limits (-45.0 90.0)
           (-70.0 20.0)
  end
  begin
     id 5 
     name ltoes
     direction 1.53592e-011 -4.21925e-011 1   
     length 1.07518   
     axis -90 7.62852e-016 20   XYZ
    dof rx
    limits (-90.0 20.0)
  end
  begin
     id 6 
     name rhipjoint
     direction -0.57 -0.782963 0.249136   
     length 2.4047  
     axis 0 0 0  XYZ 
  end
  begin
     id 7 
     name rfemur
     direction -0.34202 -0.939693 0   
     length 7.51486   
     axis 0 0 -20   XYZ
    dof rx ry rz
    limits (-160.0 20.0)
           (-70.0 70.0)
           (-70.0 60.0)
  end
  begin
     id 8 
     name rtibia
     direction -0.34202 -0.939693 0   
     length 8.08317   
     axis 0 0 -20   XYZ
    dof rx
    limits (-10.0 170.0)
 end
 begin
     id 9 
     name rfoot
     direction -0.104954 -0.281256 0.953876   
     length 2.30343  
     axis -90 -7.62852e-016 -20   XYZ
    dof rx rz
    limits (-45.0 90.0)
           (-20.0 70.0)
  end
  begin
     id 10 
     name rtoes
     direction -1.53556e-011 -4.21922e-011 1   
     length 1.14803   
     axis -90 -7.62852e-016 -20   XYZ
    dof rx
    limits (-90.0 20.0)
  end
  begin
     id 11 
     name lowerback
     direction -0.0152855 0.99353 -0.11254   
     length 2.05311   
     axis 0 0 0   XYZ
    dof rx ry rz
    limits (-20.0 45.0)
           (-30.0 30.0)
           (-30.0 30.0)
  end
  begin
     id 12 
     name upperback
     direction -0.00157509 0.999443 -0.033332   
     length 2.06353   
     axis 0 0 0   XYZ
    dof rx ry rz
    limits (-20.0 45.0)
           (-30.0 30.0)
           (-30.0 30.0)
  end
  begin
     id 13 
     name thorax
     direction 0.00577788 0.999804 0.0189484   
     length 2.08472   
     axis 0 0 0   XYZ
    dof rx ry rz
    limits (-20.0 45.0)
           (-30.0 30.0)
           (-30.0 30.0)
  end
  begin
     id 14 
     name lowerneck
     direction -1.09301e-005 0.994719 0.10264   
     length 1.76249   
     axis 0 0 0   XYZ
    dof rx ry rz
    limits (-20.0 45.0)
           (-30.0 30.0)
           (-30.0 30.0)
  end
  begin
     id 15 
     name upperneck
     direction 0.0495018 0.988526 -0.142706   
     length 1.77897   
     axis 0 0 0   XYZ
    dof rx ry rz
    limits (-20.0 45.0)
           (-30.0 30.0)
           (-30.0 30.0)
  end
  begin
     id 16
     name head
     direction 0.0142736 0.998114 -0.0597101  
     length 1.78934  
     axis 0 0 0   XYZ
    dof rx ry rz
    limits (-20.0 45.0)
           (-30.0 30.0)
           (-30.0 30.0)
  end
  begin
     id 17 
     name lclavicle
     direction 0.918111 0.396107 -0.0130883  
     length 3.37276  
     axis 0 0 0   XYZ
    dof ry rz
    limits (-20.0 10.0)
           (0.0 20.0)
  end
  begin
     id 18 
     name lhumerus
     direction 1 -4.48975e-011 -3.26108e-027   
     length 5.34298   
     axis 180 -30 -90   XYZ
    dof rx ry rz
    limits (-60.0 90.0)
           (-90.0 90.0)
           (-90.0 90.0)
  end
  begin
     id 19
     name lradius
     direction 1 -4.48964e-011 -8.84413e-028   
     length 3.67262   
     axis 180 -30 -90   XYZ
    dof rx
    limits (-10.0 170.0)
  end
  begin
     id 20
     name lwrist
     direction 1 -4.48991e-011 -1.24264e-027   
     length 1.83631   
     axis -2.17013e-015 90 90   XYZ
    dof ry
    limits (-180.0 0.0)
 end
  begin
     id 21 
     name lhand
     direction 1 -4.48855e-011 -2.48528e-027   
     length 0.599298   
     axis 1.58582e-015 90 90   XYZ
    dof rx rz
    limits (-90.0 90.0)
           (-45.0 45.0)
  end
  begin
     id 22 
     name lfingers
     direction 1 -4.48811e-011 -4.97056e-027   
     length 0.48317   
     axis 3.17164e-015 90 90   XYZ
    dof rx
    limits (0.0 90.0)
  end
  begin
     id 23
     name lthumb
     direction 0.707107 -6.34882e-011 0.707107   
     length 0.693738   
     axis -90 45 2.85299e-015   XYZ
    dof rx rz
    limits (-45.0 45.0)
           (-45.0 45.0)
  end
  begin
     id 24 
     name rclavicle
     direction -0.920511 0.384752 -0.0680135   
     length 3.43787  
     axis 0 0 0   XYZ 
    dof ry rz
    limits (-10.0 20.0)
           (-20.0 0.0)
  end
  begin
     id 25 
     name rhumerus
     direction -0.999976 -0.00330524 0.00603274  
     length 5.5498   
     axis 180 30 90   XYZ
    dof rx ry rz
    limits (-90.0 60.0)
           (-90.0 90.0)
           (-90.0 90.0)
  end
  begin
     id 26 
     name rradius
     direction -1 -4.48967e-011 8.62438e-027   
     length 3.69401   
     axis 180 30 90   XYZ
    dof rx
    limits (-10.0 170.0)
  end
  begin
     id 27 
     name rwrist
     direction -1 -4.4897e-011 9.54866e-027   
     length 1.84701   
     axis -7.69462e-015 -90 -90   XYZ
    dof ry
    limits (-180.0 0.0)
  end
  begin
     id 28
     name rhand
     direction -1 -4.48982e-011 1.90973e-026   
     length 0.638113   
     axis -1.21857e-014 -90 -90   XYZ
    dof rx rz
    limits (-90.0 90.0)
           (-45.0 45.0)
  end
  begin
     id 29
     name rfingers
     direction -1 -4.48936e-011 3.81946e-026   
     length 0.514463   
     axis -2.43714e-014 -90 -90   XYZ
    dof rx
    limits (0.0 90.0)
  end
  begin
     id 30
     name rthumb
     direction -0.707107 -6.34942e-011 0.707107   
     length 0.738669   
     axis -90 -45 -2.85299e-015   XYZ
    dof rx rz
    limits (-45.0 45.0)
           (-45.0 45.0)
  end
:hierarchy
  begin
    root lhipjoint rhipjoint lowerback
    lhipjoint lfemur
    lfemur ltibia
    ltibia lfoot
    lfoot ltoes
    rhipjoint rfemur
    rfemur rtibia
    rtibia rfoot
    rfoot rtoes
    lowerback upperback
    upperback thorax
    thorax lowerneck lclavicle rclavicle
    lowerneck upperneck
    upperneck head
    lclavicle lhumerus
    lhumerus lradius
    lradius lwrist
    lwrist lhand lthumb
    lhand lfingers
    rclavicle rhumerus
    rhumerus rradius
    rradius rwrist
    rwrist rhand rthumb
    rhand rfingers
  end

#!OML:ASF F:\twosubjects\two\Thursday\Session 1\Rory.ASF
:FULLY-SPECIFIED
:DEGREES
67
root 20.5619 18.8077 9.95634 1.659 -16.1337 5.48254
lowerback 1.25335 -2.31775 -7.26773
upperback 0.389535 -3.21821 -4.83756
thorax -0.182538 -1.61688 -0.882286
lowerneck -4.10873 -12.6508 -12.4784
upperneck 11.2379 -18.5924 16.9827
head 6.89264 -8.75804 5.72418
rclavicle -2.98177e-016 8.74653e-014
rhumerus -58.4227 -43.2753 -48.1456
rradius 12.8516
rwrist 68.2343
rhand -7.74601 17.4638
rfingers 7.12502
rthumb 18.1532 -11.7091
lclavicle -2.98177e-016 8.74653e-014
lhumerus -36.6073 23.837 65.3946
lradius 17.9842
lwrist -35.7019
lhand -11.2984 28.7189
lfingers 7.12502
lthumb 14.733 58.1753
rfemur -17.1828 7.01925 11.6726
rtibia 65.1683
rfoot 8.88832 1.99419
rtoes -4.74614
lfemur -11.2937 5.90558 -30.2378
ltibia 18.2975
lfoot -9.27312 -8.87771
ltoes 19.2992
68
root 20.5593 18.7896 10.0922 1.8609 -15.3579 5.5828
lowerback 1.34932 -2.47804 -7.41831
upperback 0.299044 -3.44932 -4.73866
thorax -0.306394 -1.72661 -0.689157
lowerneck -3.48917 -12.7456 -12.4294
upperneck 10.7729 -18.7324 17.1029
head 6.66751 -8.8659 5.77953
rclavicle 5.36719e-015 3.18055e-015
rhumerus -60.7332 -43.798 -45.0923
rradius 12.7596
rwrist 69.3341
rhand -7.14982 17.8425
rfingers 7.12502
rthumb 18.7267 -11.2761
lclavicle 5.36719e-015 3.18055e-015
lhumerus -35.4898 22.1721 67.2995
lradius 18.7587
lwrist -33.4296
lhand -11.8535 30.269
lfingers 7.12502
lthumb 14.1982 59.7638
rfemur -18.6706 6.0208 11.4402
rtibia 65.9703
rfoot 7.09495 1.31634
rtoes -8.25464
lfemur -11.3057 5.61283 -30.4728
ltibia 18.8437
lfoot -9.50883 -9.42436
ltoes 19.6513
69
root 20.5607 18.768 10.2265 1.92406 -14.6509 5.9111
lowerback 1.40014 -2.65368 -7.76537
upperback 0.361784 -3.68702 -4.73509
thorax -0.237938 -1.84706 -0.493958
lowerneck -3.11982 -12.7856 -12.3364
upperneck 10.234 -18.7643 17.2466
head 6.44572 -8.90803 5.83627
rclavicle -4.51241e-014 -3.18055e-015
rhumerus -61.4469 -43.5276 -44.1923
rradius 12.8181
rwrist 68.6395
rhand -5.90834 17.8773
rfingers 7.12502
rthumb 19.9205 -11.1217
lclavicle -4.51241e-014 -3.18055e-015
lhumerus -34.2308 20.8359 68.9795
lradius 19.437
lwrist -31.7969
lhand -11.2351 31.0063
lfingers 7.12502
lthumb 14.794 60.4583
rfemur -19.9414 5.38848 11.0078
rtibia 66.605
rfoot 5.33359 0.232609
rtoes -12.11
lfemur -11.1781 5.33043 -30.9855
ltibia 19.408
lfoot -10.0214 -9.83699
ltoes 20.021
70
root 20.5612 18.7491 10.3719 1.92183 -13.8868 5.87224
lowerback 1.4173 -2.77298 -7.69015
upperback 0.550342 -3.82786 -4.59407
thorax -0.04038 -1.92503 -0.394734
lowerneck -2.81152 -12.8835 -12.4551
upperneck 9.76696 -18.8771 17.4574
head 6.29861 -8.98761 5.92902
rclavicle -1.59028e-015 3.81667e-014
rhumerus -62.6619 -43.662 -42.3633
rradius 12.6111
rwrist 68.9707
rhand -5.60898 17.2545
rfingers 7.12502
rthumb 20.2082 -11.7143
lclavicle -1.59028e-015 3.81667e-014
lhumerus -32.9669 20.0562 70.3172
lradius 19.9309
lwrist -31.6193
lhand -12.1495 31.651
lfingers 7.12502
lthumb 13.913 61.1656
rfemur -20.8145 4.97213 11.0929
rtibia 66.9707
rfoot 3.60775 -1.08137
rtoes -15.8684
lfemur -10.806 5.2109 -31.0914
ltibia 19.9636
lfoot -11.012 -10.1101
ltoes 18.9976
71
root 20.5574 18.7468 10.5136 2.08547 -13.0619 5.79336
lowerback 1.50753 -2.88126 -7.65596
upperback 0.582923 -3.97571 -4.39793
thorax -0.0381258 -1.99843 -0.207203
lowerneck -2.60163 -13.0163 -12.6194
upperneck 9.59643 -19.068 17.6207
head 6.27336 -9.09383 5.99307
rclavicle 2.34566e-014 3.18055e-014
rhumerus -65.232 -44.3821 -38.6393
rradius 12.2525
rwrist 70.911
rhand -6.48833 17.0062
rfingers 7.12502
rthumb 19.3629 -12.0497
lclavicle 2.34566e-014 3.18055e-014
lhumerus -31.8991 18.8392 71.7761
lradius 20.5261
lwrist -30.3683
lhand -12.7389 31.2661
lfingers 7.12502
lthumb 13.3448 60.8188
rfemur -21.871 4.90613 11.2716
rtibia 67.1202
rfoot 1.81284 -2.8587
rtoes -16.7749
lfemur -10.6681 4.93639 -31.0703
ltibia 20.4704
lfoot -11.977 -10.4163
ltoes 16.4967
72
root 20.5533 18.7479 10.6552 2.1899 -12.408 5.86842
lowerback 1.58545 -2.83126 -7.73116
upperback 0.583934 -3.91663 -4.26854
thorax -0.0696161 -1.96756 -0.0289691
lowerneck -2.41392 -13.2565 -12.9179
upperneck 9.62303 -19.4351 17.8022
head 6.35794 -9.28099 6.05286
rclavicle -4.88016e-014 -2.14687e-014
rhumerus -66.4193 -44.0633 -37.2371
rradius 12.3278
rwrist 70.5554
rhand -6.93154 16.5176
rfingers 7.12502
rthumb 18.9367 -12.5806
lclavicle -4.88016e-014 -2.14687e-014
lhumerus -30.7371 16.8194 73.5647
lradius 21.0728
lwrist -27.9529
lhand -13.3033 31.0169
lfingers 7.12502
lthumb 12.8008 60.6044
rfemur -22.8911 5.15412 11.2502
rtibia 67.0741
rfoot 0.023484 -4.6797
rtoes -13.723
lfemur -10.5404 4.90434 -31.243
ltibia 20.9384
lfoot -12.8707 -10.6971
ltoes 12.5913
73
root 20.554 18.7221 10.8002 2.22522 -11.6722 6.08151
lowerback 1.57417 -2.74539 -7.80847
upperback 0.628485 -3.79705 -4.21041
thorax -0.0146757 -1.90996 0.0702642
lowerneck -2.21182 -13.5806 -13.0585
upperneck 9.63023 -19.8977 17.8017
head 6.41474 -9.5175 6.0185
rclavicle 3.69739e-014 3.18055e-015
rhumerus -66.5992 -43.1001 -37.5383
rradius 12.6549
rwrist 68.4194
rhand -6.86561 16.2078
rfingers 7.12502
rthumb 19.0001 -12.8842
lclavicle 3.69739e-014 3.18055e-015
lhumerus -29.7076 15.1239 75.1509
lradius 21.8699
lwrist -26.502
lhand -12.7575 30.9606
lfingers 7.12502
lthumb 13.3269 60.5144
rfemur -23.7745 4.7302 10.9366
rtibia 66.8937
rfoot -1.74628 -5.67596
rtoes -8.36922
lfemur -10.2584 4.93262 -31.582
ltibia 21.3632
lfoot -13.1611 -11.2207
ltoes 12.1002
74
root 20.5504 18.6943 10.9421 2.28062 -10.9699 6.11511
lowerback 1.63135 -2.89461 -7.89448
upperback 0.666823 -3.99805 -4.0915
thorax 0.0192427 -2.01144 0.241788
lowerneck -2.03477 -13.6657 -12.9793
upperneck 9.5841 -20.0235 17.7691
head 6.37825 -9.58767 5.99214
rclavicle 3.51849e-014 1.82882e-014
rhumerus -66.7991 -42.4037 -37.4339
rradius 12.7526
rwrist 66.8096
rhand -7.09027 16.7822
rfingers 7.12502
rthumb 18.784 -12.3308
lclavicle 3.51849e-014 1.82882e-014
lhumerus -29.0989 14.3435 76.0388
lradius 22.9272
lwrist -25.6528
lhand -12.4454 30.4322
lfingers 7.12502
lthumb 13.6278 59.9661
rfemur -24.6653 4.38511 10.8939
rtibia 66.5823
rfoot -3.35633 -6.45284
rtoes -7.28114
lfemur -9.97848 4.42155 -31.6194
ltibia 21.7148
lfoot -12.7 -11.7261
ltoes 16.3492
75
root 20.5412 18.6947 11.0844 2.29841 -10.4565 5.6627
lowerback 1.75528 -2.99239 -7.5676
upperback 0.753202 -4.12754 -3.83646
thorax 0.043033 -2.07744 0.330075
lowerneck -1.54434 -13.6589 -13.2189
upperneck 9.24612 -20.0491 18.1238
head 6.25785 -9.632 6.17385
rclavicle 4.31363e-014 9.54166e-015
rhumerus -67.6343 -42.232 -36.179
rradius 12.6066
rwrist 66.8173
rhand -8.04347 17.5298
rfingers 7.12502
rthumb 17.867 -11.6694
lclavicle 4.31363e-014 9.54166e-015
lhumerus -28.372 13.4557 76.9527
lradius 23.7448
lwrist -24.5247
lhand -12.7789 29.8638
lfingers 7.12502
lthumb 13.3063 59.4189
rfemur -25.3578 4.91927 11.5682
rtibia 66.0072
rfoot -4.87374 -7.80732
rtoes -8.95223
lfemur -9.58563 4.00199 -31.1477
ltibia 21.9625
lfoot -13.0582 -11.7417
ltoes 15.7925
76
root 20.5376 18.6971 11.2264 2.40814 -9.79703 5.53064
lowerback 1.82296 -3.00677 -7.39099
upperback 0.830418 -4.14379 -3.71297
thorax 0.0826503 -2.08747 0.361674
lowerneck -1.20649 -13.7775 -13.4662
upperneck 8.91284 -20.2615 18.6355
head 6.21663 -9.7522 6.36695
rclavicle -1.09332e-015 5.40694e-014
rhumerus -70.7169 -43.3027 -31.7864
rradius 12.3062
rwrist 70.1105
rhand -9.38463 18.1887
rfingers 7.12502
rthumb 16.5762 -11.1233
lclavicle -1.09332e-015 5.40694e-014
lhumerus -27.3883 12.0024 78.1259
lradius 24.5649
lwrist -23.1874
lhand -12.8002 29.8256
lfingers 7.12502
lthumb 13.2858 59.3821
rfemur -26.1185 5.26212 11.7739
rtibia 65.2166
rfoot -6.37948 -8.8051
rtoes -9.74639
lfemur -9.16118 3.8432 -31.0771
ltibia 22.1307
lfoot -13.7961 -11.8841
ltoes 13.485
77
root 20.5341 18.6834 11.3699 2.50938 -9.12448 5.91304
lowerback 1.88932 -3.0869 -7.76544
upperback 0.836135 -4.26218 -3.72815
thorax 0.0849854 -2.1471 0.554383
lowerneck -1.15185 -13.8609 -13.5243
upperneck 8.94001 -20.428 18.9023
head 6.28136 -9.82606 6.43838
rclavicle -4.21423e-014 -3.81667e-014
rhumerus -72.3751 -43.5123 -29.6437
rradius 12.2615
rwrist 71.4711
rhand -9.91173 18.4534
rfingers 7.12502
rthumb 16.0686 -10.9004
lclavicle -4.21423e-014 -3.81667e-014
lhumerus -26.7411 10.734 79.0132
lradius 25.8249
lwrist -22.1797
lhand -11.9732 30.1047
lfingers 7.12502
lthumb 14.0828 59.6075
rfemur -26.9423 5.12084 11.3037
rtibia 64.2608
rfoot -7.10437 -9.19972
rtoes -11.9289
lfemur -8.79711 3.91369 -31.5559
ltibia 22.3202
lfoot -13.4799 -12.3335
ltoes 15.9588
78
root 20.5221 18.675 11.4985 2.53246 -8.63704 5.91786
lowerback 2.20995 -3.05248 -7.89623
upperback 0.750246 -4.259 -3.58946
thorax -0.163782 -2.13621 0.791193
lowerneck -0.687634 -13.9512 -13.6831
upperneck 8.91756 -20.6007 18.9831
head 6.25009 -9.93875 6.49628
rclavicle -4.79071e-014 -4.92986e-014
rhumerus -71.476 -42.3017 -31.4317
rradius 12.5686
rwrist 69.0525
rhand -9.77958 18.112
rfingers 7.12502
rthumb 16.1959 -11.2314
lclavicle -4.79071e-014 -4.92986e-014
lhumerus -26.4001 9.63365 79.8848
lradius 27.1459
lwrist -21.3702
lhand -11.3176 30.3314
lfingers 7.12502
lthumb 14.7145 59.7892
rfemur -27.6172 5.59242 11.3964
rtibia 63.0628
rfoot -7.21429 -10.0867
rtoes -13.4537
lfemur -8.53047 4.1099 -31.5792
ltibia 22.574
lfoot -12.2757 -12.7059
ltoes 20.9298
79
root 20.5108 18.6621 11.6147 2.68229 -8.14672 5.77273
lowerback 2.48314 -3.11518 -7.91095
upperback 0.71782 -4.373 -3.42211
thorax -0.328109 -2.18689 0.990379
lowerneck -0.290814 -14.0591 -13.5716
upperneck 8.62277 -20.7529 19.054
head 6.11309 -10.0393 6.51431
rclavicle 6.35117e-014 2.54444e-014
rhumerus -71.3323 -41.8917 -31.6692
rradius 12.5795
rwrist 68.0026
rhand -9.74408 17.6041
rfingers 7.12502
rthumb 16.2301 -11.7365
lclavicle 6.35117e-014 2.54444e-014
lhumerus -25.8929 8.67907 80.6668
lradius 28.1708
lwrist -20.0669
lhand -11.7262 30.2986
lfingers 7.12502
lthumb 14.3208 59.7847
rfemur -28.3718 6.27205 11.6312
rtibia 61.6676
rfoot -7.82919 -11.1562
rtoes -14.4587
lfemur -8.39787 4.08333 -31.4158
ltibia 22.8831
lfoot -12.9208 -12.7807
ltoes 18.632
